<?xml version="1.0" encoding="utf-8"?>
<svg xmlns="http://www.w3.org/2000/svg" viewBox="599.9998 -0.0003 1299.9988 1299.9991" width="1300px" height="1300px">
  <defs>
    <linearGradient id="Gradient7" gradientUnits="userSpaceOnUse" x1="793.249" y1="1141.39" x2="1514.28" y2="1081.85" gradientTransform="matrix(0.914536, 0, 0, 0.821128, 311.799685, -195.15145)">
      <stop class="stop0" offset="0" stop-opacity="1" stop-color="rgb(0,5,0)"/>
      <stop class="stop1" offset="1" stop-opacity="1" stop-color="rgb(46,14,73)"/>
    </linearGradient>
    <linearGradient id="Gradient6" gradientUnits="userSpaceOnUse" x1="1523.31" y1="538.605" x2="1176.33" y2="444.53" gradientTransform="matrix(0.914536, 0, 0, 0.821128, 311.799685, -195.15145)">
      <stop class="stop0" offset="0" stop-opacity="1" stop-color="rgb(150,16,172)"/>
      <stop class="stop1" offset="1" stop-opacity="1" stop-color="rgb(123,84,196)"/>
    </linearGradient>
    <linearGradient id="Gradient5" gradientUnits="userSpaceOnUse" x1="835.151" y1="1714.85" x2="751.575" y2="1574.96" gradientTransform="matrix(0.914536, 0, 0, 0.821128, 311.799685, -195.15145)">
      <stop class="stop0" offset="0" stop-opacity="1" stop-color="rgb(12,74,162)"/>
      <stop class="stop1" offset="1" stop-opacity="1" stop-color="rgb(17,98,181)"/>
    </linearGradient>
    <linearGradient id="Gradient4" gradientUnits="userSpaceOnUse" x1="821.557" y1="1348.34" x2="914.955" y2="1195.88" gradientTransform="matrix(0.914536, 0, 0, 0.821128, 311.799685, -195.15145)">
      <stop class="stop0" offset="0" stop-opacity="1" stop-color="rgb(255,97,82)"/>
      <stop class="stop1" offset="1" stop-opacity="1" stop-color="rgb(153,53,117)"/>
    </linearGradient>
    <linearGradient id="Gradient3" gradientUnits="userSpaceOnUse" x1="1493.6" y1="1028.39" x2="558.395" y2="1032.33" gradientTransform="matrix(0.914536, 0, 0, 0.821128, 311.799685, -195.15145)">
      <stop class="stop0" offset="0" stop-opacity="1" stop-color="rgb(65,26,103)"/>
      <stop class="stop1" offset="1" stop-opacity="1" stop-color="rgb(10,46,94)"/>
    </linearGradient>
    <linearGradient id="Gradient2" gradientUnits="userSpaceOnUse" x1="1008.13" y1="862.57" x2="984.856" y2="1018.24" gradientTransform="matrix(0.914536, 0, 0, 0.821128, 311.799685, -195.15145)">
      <stop class="stop0" offset="0" stop-opacity="1" stop-color="rgb(237,124,120)"/>
      <stop class="stop1" offset="1" stop-opacity="1" stop-color="rgb(255,245,216)"/>
    </linearGradient>
    <linearGradient id="Gradient1" gradientUnits="userSpaceOnUse" x1="855.336" y1="823.671" x2="886.547" y2="908.301" gradientTransform="matrix(0.914536, 0, 0, 0.821128, 311.799685, -195.15145)">
      <stop class="stop0" offset="0" stop-opacity="1" stop-color="rgb(232,81,102)"/>
      <stop class="stop1" offset="1" stop-opacity="1" stop-color="rgb(252,157,142)"/>
    </linearGradient>
  </defs>
  <path fill="rgb(39,58,135)" d="M 996.3 100.505 C 1023.01 99.712 1049.89 100.275 1076.62 100.3 L 1215.58 100.366 L 1313.47 100.349 C 1329.26 100.349 1345.75 99.45 1361.47 100.538 C 1404.53 99.85 1447.68 100.447 1490.75 100.538 C 1514.14 100.578 1542.36 99.066 1565.02 101.33 C 1617.93 100.464 1682.58 129.017 1720.16 161.42 C 1768.45 203.114 1798.37 261.962 1799.58 322.219 C 1800.74 381.639 1799.18 441.331 1798.8 500.764 C 1800.12 509.799 1799.33 519.592 1799.3 528.721 L 1799.2 579.44 L 1798.57 788.28 C 1799.36 828.852 1798.5 869.506 1798.63 910.086 C 1798.75 946.298 1802.18 996.881 1793.4 1031.54 C 1790.02 1044.93 1784.43 1057.58 1778.46 1070.18 C 1767.42 1093.42 1752.92 1113.11 1733.35 1131.32 C 1686.64 1174.79 1628.36 1198.05 1560.79 1199.05 C 1480.95 1200.25 1400.89 1199.15 1321.02 1199.23 L 1250.35 1199.48 C 1237.43 1199.58 1222.91 1200.74 1210.14 1199.22 L 1016.68 1198.91 C 977.212 1198.84 936.03 1201.08 897.015 1195.09 C 870.411 1191.01 839.956 1181.29 817.538 1167.45 C 801.505 1161.36 781.364 1143.92 769.158 1132.6 C 736.631 1102 714.461 1063.74 705.217 1022.27 C 697.779 988.327 700.492 952.213 700.526 917.787 L 700.38 787.672 L 700.397 486.089 C 700.38 427.517 699.388 368.768 700.603 310.213 C 701.733 256.045 726.787 200.483 770.75 162.768 C 842.43 101.264 902.682 98.903 996.3 100.505 Z" style="stroke-width: 0.846;"/>
  <path fill="url(#Gradient7)" d="M 1518.8 330.751 L 1521.9 333.85 C 1558.08 364.061 1592.29 396.279 1627.35 427.517 C 1641.02 439.68 1654.45 452.588 1668.91 463.907 C 1671.72 466.492 1674.59 468.752 1677.77 470.961 C 1677.87 473.271 1677.4 476.051 1678.89 477.945 C 1678.98 485.496 1679.23 493.073 1679.09 500.622 C 1677.03 512.059 1678.61 525.513 1678.68 537.156 L 1678.89 609.658 C 1677.97 700.255 1677.99 790.867 1678.97 881.47 C 1679.09 906.423 1680.93 931.124 1679.86 956.088 C 1679.55 963.357 1679.64 970.871 1677.91 977.995 C 1677.76 978.224 1677.56 978.435 1677.42 978.689 C 1675.85 981.295 1675.57 985.061 1674.56 987.98 C 1672.87 992.752 1670.91 997.431 1668.71 1002.04 C 1653.97 1032.81 1628.13 1056.12 1592.64 1067.28 C 1583.74 1070.11 1574.5 1071.99 1565.12 1072.9 C 1549.75 1074.4 1533.56 1073.49 1518.08 1073.46 C 1502.95 1073.42 1487.29 1074.07 1472.2 1073.1 L 1470.13 1073.63 C 1454.12 1072.13 1436.64 1073.13 1420.46 1073.07 C 1398.26 1072.94 1375.16 1071.8 1353.04 1073.39 L 1354.19 1073.49 C 1361.95 1074.09 1369.77 1073.9 1377.54 1073.87 C 1368.48 1074.4 1358.42 1074.24 1349.58 1075.84 C 1314.12 1076.77 1278.41 1076.01 1242.93 1076.04 C 1206.23 1076.07 1169.28 1076.89 1132.61 1075.89 C 1113.63 1076.69 1094.16 1076.14 1075.17 1075.87 C 1073.15 1074.41 1071.05 1074.04 1068.61 1073.37 L 1059.4 1073.31 C 1060.75 1073.01 1061.66 1072.91 1063.09 1072.99 C 1065.03 1073.11 1063.96 1073.4 1065.78 1072.05 C 1064.73 1070.24 1063.32 1068.87 1061.87 1067.32 L 1062.49 1067.65 C 1055.55 1059.55 1038.48 1041.95 1029.49 1037.06 C 1015.95 1023.87 1001.96 1011.05 987.5 998.658 C 977.571 990.121 967 981.837 957.618 972.834 C 956.094 970.972 951.413 969.06 949.119 967.757 C 974.472 955.978 999.629 943.848 1024.58 931.386 C 1036.52 925.354 1048.18 917.991 1060.61 912.886 C 1091.7 927.112 1124.45 939.411 1154.88 954.608 C 1156.11 953.922 1157.48 953.22 1158.57 952.34 C 1159.75 951.384 1160.08 950.605 1160.27 949.209 C 1162.14 936.158 1160.53 918.138 1160.54 904.626 L 1160.43 806.41 C 1161.78 797.55 1160.65 787.524 1160.47 778.566 C 1162.7 766.562 1160.54 739.423 1160.29 725.981 C 1161.06 717.129 1158.96 706.815 1161.11 698.293 C 1161.64 696.24 1162.31 696.15 1164.17 695.074 C 1175.65 700.132 1226.56 724.355 1237 723.23 C 1238.31 697.405 1236.99 670.728 1236.47 644.853 C 1253.55 635.796 1272.6 628.989 1290.13 620.467 C 1322.22 606.155 1354.08 591.442 1385.71 576.329 C 1392.38 574.089 1398.85 571.11 1405.33 568.423 C 1406.48 552.776 1405.46 536.526 1405.47 520.815 L 1405.64 427.956 C 1405.66 413.582 1403.6 395.005 1406.29 381.171 C 1417.76 375.582 1429.18 370.221 1440.96 365.226 C 1450.74 361.97 1460.47 356.894 1469.87 352.772 C 1486.23 345.591 1502.88 338.707 1518.8 330.751 Z" style="stroke-width: 0.846;"/>
  <path fill="rgb(197,42,108)" d="M 1518.8 330.751 L 1521.9 333.85 C 1524.62 350.229 1522.58 382.818 1522.58 400.525 L 1522.64 542.884 L 1522.51 811.313 L 1522.45 898.369 C 1522.44 914.225 1523 930.242 1522.18 946.079 C 1515.95 951.434 1508.26 953.88 1501.95 958.568 C 1493.72 956.325 1485.17 951.147 1477.46 947.491 L 1426.62 923.328 C 1420.49 920.386 1413.26 915.811 1406.48 914.479 C 1386.03 924.578 1365.11 934 1344.39 943.644 C 1333.58 948.668 1321.92 955.191 1310.54 958.855 C 1307.64 952.594 1310.38 874.778 1310.5 862.312 C 1308.69 851.72 1310.19 839.091 1310.23 828.278 L 1310.67 751.297 C 1310.86 731.245 1310.42 711.127 1311.6 691.1 C 1286.84 701.872 1262.17 713.229 1237 723.23 C 1238.31 697.405 1236.99 670.728 1236.47 644.853 C 1253.55 635.796 1272.6 628.989 1290.13 620.467 C 1322.22 606.155 1354.08 591.442 1385.71 576.329 C 1392.38 574.089 1398.85 571.11 1405.33 568.423 C 1406.48 552.776 1405.46 536.526 1405.47 520.815 L 1405.64 427.956 C 1405.66 413.582 1403.6 395.005 1406.29 381.171 C 1417.76 375.582 1429.18 370.221 1440.96 365.226 C 1450.74 361.97 1460.47 356.894 1469.87 352.772 C 1486.23 345.591 1502.88 338.707 1518.8 330.751 Z" style="stroke-width: 0.846;"/>
  <path fill="rgb(39,58,135)" d="M 1404.6 649.69 L 1405.22 668.124 C 1406.6 701.799 1405.89 735.768 1405.88 769.468 C 1405.87 793.272 1407.06 817.677 1405.53 841.423 C 1405.8 856.868 1405.88 872.314 1405.82 887.76 C 1405.85 896.554 1405.36 905.734 1406.48 914.479 C 1386.03 924.578 1365.11 934 1344.39 943.644 C 1333.58 948.668 1321.92 955.191 1310.54 958.855 C 1307.64 952.594 1310.38 874.778 1310.5 862.312 C 1308.69 851.72 1310.19 839.091 1310.23 828.278 L 1310.67 751.297 C 1310.86 731.245 1310.42 711.127 1311.6 691.1 C 1342.48 677.059 1373.49 663.255 1404.6 649.69 Z" style="stroke-width: 0.846;"/>
  <path fill="rgb(46,103,222)" d="M 1405.53 841.423 C 1405.8 856.868 1405.88 872.314 1405.82 887.76 C 1405.85 896.554 1405.36 905.734 1406.48 914.479 C 1386.03 924.578 1365.11 934 1344.39 943.644 C 1333.58 948.668 1321.92 955.191 1310.54 958.855 C 1307.64 952.594 1310.38 874.778 1310.5 862.312 C 1311.46 864.924 1310.56 869.038 1312.1 871.198 C 1312.86 872.289 1314.82 873.168 1316.15 873.603 C 1331.87 878.685 1372.66 865.318 1387.51 858.593 C 1392.6 856.286 1403.13 849.044 1404.48 843.944 C 1404.89 842.408 1404.19 843.837 1405.1 842.162 C 1405.24 841.907 1405.39 841.67 1405.53 841.423 Z" style="stroke-width: 0.846;"/>
  <path fill="rgb(25,12,81)" d="M 1404.6 649.69 L 1405.22 668.124 C 1404.45 668.314 1403.65 668.362 1402.94 668.683 C 1399.96 670.03 1320.72 742.28 1310.67 751.297 C 1310.86 731.245 1310.42 711.127 1311.6 691.1 C 1342.48 677.059 1373.49 663.255 1404.6 649.69 Z" style="stroke-width: 0.846;"/>
  <path fill="rgb(13,29,72)" d="M 1311.6 691.1 C 1310.42 711.127 1310.86 731.245 1310.67 751.297 L 1310.23 828.278 C 1310.19 839.091 1308.69 851.72 1310.5 862.312 C 1310.38 874.778 1307.64 952.594 1310.54 958.855 C 1315.64 962.248 1321.55 965.278 1326.4 968.865 C 1328.79 975.685 1348.97 991.559 1355.7 997.956 C 1364.31 1006.12 1421.23 1061.04 1421.83 1066.49 C 1415.19 1070.58 1374.21 1068.08 1364.49 1068.15 C 1289.4 1069.26 1214.29 1069.32 1139.21 1068.34 C 1121.58 1068.12 1103.96 1068.98 1086.39 1068.83 C 1083.17 1068.8 1073.29 1067.01 1070.81 1068.02 C 1070.24 1068.24 1069.79 1068.63 1069.28 1068.96 C 1070.23 1070.54 1070.77 1071.33 1072.49 1072.27 L 1363.93 1071.43 C 1391.35 1071.44 1418.63 1071.71 1446.03 1072.28 C 1454.06 1072.44 1464.52 1071.4 1472.2 1073.1 L 1470.13 1073.63 C 1454.12 1072.13 1436.64 1073.13 1420.46 1073.07 C 1398.26 1072.94 1375.16 1071.8 1353.04 1073.39 L 1354.19 1073.49 C 1361.95 1074.09 1369.77 1073.9 1377.54 1073.87 C 1368.48 1074.4 1358.42 1074.24 1349.58 1075.84 C 1314.12 1076.77 1278.41 1076.01 1242.93 1076.04 C 1206.23 1076.07 1169.28 1076.89 1132.61 1075.89 C 1113.63 1076.69 1094.16 1076.14 1075.17 1075.87 C 1073.15 1074.41 1071.05 1074.04 1068.61 1073.37 L 1059.4 1073.31 C 1060.75 1073.01 1061.66 1072.91 1063.09 1072.99 C 1065.03 1073.11 1063.96 1073.4 1065.78 1072.05 C 1064.73 1070.24 1063.32 1068.87 1061.87 1067.32 L 1062.49 1067.65 C 1055.55 1059.55 1038.48 1041.95 1029.49 1037.06 C 1015.95 1023.87 1001.96 1011.05 987.5 998.658 C 977.571 990.121 967 981.837 957.618 972.834 C 956.094 970.972 951.413 969.06 949.119 967.757 C 974.472 955.978 999.629 943.848 1024.58 931.386 C 1036.52 925.354 1048.18 917.991 1060.61 912.886 C 1091.7 927.112 1124.45 939.411 1154.88 954.608 C 1156.11 953.922 1157.48 953.22 1158.57 952.34 C 1159.75 951.384 1160.08 950.605 1160.27 949.209 C 1162.14 936.158 1160.53 918.138 1160.54 904.626 L 1160.43 806.41 C 1161.78 797.55 1160.65 787.524 1160.47 778.566 C 1162.7 766.562 1160.54 739.423 1160.29 725.981 C 1161.06 717.129 1158.96 706.815 1161.11 698.293 C 1161.64 696.24 1162.31 696.15 1164.17 695.074 C 1175.65 700.132 1226.56 724.355 1237 723.23 C 1262.17 713.229 1286.84 701.872 1311.6 691.1 Z" style="stroke-width: 0.846;"/>
  <path fill="rgb(39,58,135)" d="M 1060.61 912.886 C 1091.7 927.112 1124.45 939.411 1154.88 954.608 L 1090.43 985.619 C 1075 993.175 1059.49 1001.66 1043.24 1007.79 C 1015.07 997.871 986.063 983.868 957.618 972.834 C 956.094 970.972 951.413 969.06 949.119 967.757 C 974.472 955.978 999.629 943.848 1024.58 931.386 C 1036.52 925.354 1048.18 917.991 1060.61 912.886 Z" style="stroke-width: 0.846;"/>
  <path fill="rgb(39,58,135)" d="M 1210.22 1073.61 C 1235.11 1073.07 1260.1 1073.38 1285 1073.36 C 1307.66 1073.35 1330.41 1072.92 1353.04 1073.39 L 1354.19 1073.49 C 1361.95 1074.09 1369.77 1073.9 1377.54 1073.87 C 1368.48 1074.4 1358.42 1074.24 1349.58 1075.84 C 1314.12 1076.77 1278.41 1076.01 1242.93 1076.04 C 1206.23 1076.07 1169.28 1076.89 1132.61 1075.89 C 1150.42 1073.53 1197.58 1078.4 1210.22 1073.61 Z" style="stroke-width: 0.846;"/>
  <path fill="rgb(39,89,140)" d="M 1068.61 1073.37 C 1083.77 1074.35 1099.4 1073.64 1114.61 1073.62 C 1146.46 1073.57 1178.37 1073.19 1210.22 1073.61 C 1197.58 1078.4 1150.42 1073.53 1132.61 1075.89 C 1113.63 1076.69 1094.16 1076.14 1075.17 1075.87 C 1073.15 1074.41 1071.05 1074.04 1068.61 1073.37 Z" style="stroke-width: 0.846;"/>
  <path fill="rgb(25,26,150)" d="M 1406.48 914.479 C 1413.26 915.811 1420.49 920.386 1426.62 923.328 L 1477.46 947.491 C 1485.17 951.147 1493.72 956.325 1501.95 958.568 C 1481.59 969.601 1459.75 979.07 1438.55 988.809 C 1426.84 994.199 1414.87 1000.75 1402.62 1004.89 C 1390.11 1000.24 1378.2 993.48 1366.36 987.582 C 1353.2 981.084 1339.88 974.839 1326.4 968.865 C 1321.55 965.278 1315.64 962.248 1310.54 958.855 C 1321.92 955.191 1333.58 948.668 1344.39 943.644 C 1365.11 934 1386.03 924.578 1406.48 914.479 Z" style="stroke-width: 0.846;"/>
  <path fill="rgb(75,11,118)" d="M 996.3 100.505 C 1023.01 99.712 1049.89 100.275 1076.62 100.3 L 1215.58 100.366 L 1313.47 100.349 C 1329.26 100.349 1345.75 99.45 1361.47 100.538 C 1404.53 99.85 1447.68 100.447 1490.75 100.538 C 1514.14 100.578 1542.36 99.066 1565.02 101.33 C 1617.93 100.464 1682.58 129.017 1720.16 161.42 C 1768.45 203.114 1798.37 261.962 1799.58 322.219 C 1800.74 381.639 1799.18 441.331 1798.8 500.764 C 1800.12 509.799 1799.33 519.592 1799.3 528.721 L 1799.2 579.44 L 1798.57 788.28 C 1799.36 828.852 1798.5 869.506 1798.63 910.086 C 1798.75 946.298 1802.18 996.881 1793.4 1031.54 C 1790.02 1044.93 1784.43 1057.58 1778.46 1070.18 C 1767.42 1093.42 1752.92 1113.11 1733.35 1131.32 C 1686.64 1174.79 1628.36 1198.05 1560.79 1199.05 C 1480.95 1200.25 1400.89 1199.15 1321.02 1199.23 L 1250.35 1199.48 C 1237.43 1199.58 1222.91 1200.74 1210.14 1199.22 C 1198.11 1188.53 1187.06 1176.85 1175.78 1165.54 L 1174.04 1165.53 C 1162.8 1155.82 1152.41 1145.37 1141.29 1135.58 C 1118.99 1115.92 1096.01 1096.8 1075.17 1075.87 C 1094.16 1076.14 1113.63 1076.69 1132.61 1075.89 C 1169.28 1076.89 1206.23 1076.07 1242.93 1076.04 C 1278.41 1076.01 1314.12 1076.77 1349.58 1075.84 C 1358.42 1074.24 1368.48 1074.4 1377.54 1073.87 C 1369.77 1073.9 1361.95 1074.09 1354.19 1073.49 L 1353.04 1073.39 C 1375.16 1071.8 1398.26 1072.94 1420.46 1073.07 C 1436.64 1073.13 1454.12 1072.13 1470.13 1073.63 L 1472.2 1073.1 C 1487.29 1074.07 1502.95 1073.42 1518.08 1073.46 C 1533.56 1073.49 1549.75 1074.4 1565.12 1072.9 C 1574.5 1071.99 1583.74 1070.11 1592.64 1067.28 C 1628.13 1056.12 1653.97 1032.81 1668.71 1002.04 C 1670.91 997.431 1672.87 992.752 1674.56 987.98 C 1675.57 985.061 1675.85 981.295 1677.42 978.689 C 1677.56 978.435 1677.76 978.224 1677.91 977.995 C 1679.64 970.871 1679.55 963.357 1679.86 956.088 C 1680.93 931.124 1679.09 906.423 1678.97 881.47 C 1677.99 790.867 1677.97 700.255 1678.89 609.658 L 1678.68 537.156 C 1678.61 525.513 1677.03 512.059 1679.09 500.622 C 1679.23 493.073 1678.98 485.496 1678.89 477.945 C 1678.97 477.424 1679.09 476.907 1679.13 476.383 C 1679.71 469.701 1678.82 462.278 1678.7 455.536 C 1678.43 441.738 1678.28 427.937 1678.29 414.138 C 1678.24 359.815 1688.59 307.876 1642.24 264.806 C 1624.59 248.404 1601.41 237.658 1576.68 232.787 C 1551.16 227.761 1517.18 230.245 1490.8 230.196 C 1431.74 230.098 1372.48 231.12 1313.44 230.074 C 1273.71 231.521 1233.42 230.36 1193.64 230.335 C 1142.72 230.303 1091.65 231.096 1040.75 230.074 C 1046.48 228.227 1056.28 229.249 1062.48 229.249 C 1073.11 229.256 1139.87 230.891 1145.51 228.284 C 1156.57 223.201 1154.61 189.507 1158.51 179.831 C 1160.9 173.907 1166.59 169.412 1168.99 163.577 C 1171.11 158.461 1185.67 136.249 1185.24 133.626 C 1177.98 132.286 1169.33 133.348 1161.89 133.381 C 1139.78 133.479 1113.46 135.162 1091.83 133.005 L 1090.92 132.907 C 1064.45 131.485 1031.95 134.615 1006.53 130.7 C 1021.74 129.802 1037.34 130.414 1052.58 130.423 C 1053.5 127.505 1054.3 124.204 1055.83 121.474 C 1058.98 115.762 1068.93 109.927 1069.17 103.618 C 1061.34 97.456 1011.61 105.073 997.84 101.003 C 997.318 100.848 996.813 100.676 996.3 100.505 Z" style="stroke-width: 0.846;"/>
  <path fill="url(#Gradient6)" d="M 996.3 100.505 C 1023.01 99.712 1049.89 100.275 1076.62 100.3 L 1215.58 100.366 L 1313.47 100.349 C 1329.26 100.349 1345.75 99.45 1361.47 100.538 C 1404.53 99.85 1447.68 100.447 1490.75 100.538 C 1514.14 100.578 1542.36 99.066 1565.02 101.33 C 1617.93 100.464 1682.58 129.017 1720.16 161.42 C 1768.45 203.114 1798.37 261.962 1799.58 322.219 C 1800.74 381.639 1799.18 441.331 1798.8 500.764 C 1793.38 489.768 1801.75 430.892 1795.55 421.695 C 1794.38 421.502 1794.15 421.434 1792.77 421.391 C 1785.53 421.167 1772.69 421.297 1767.39 426.062 C 1761.4 431.442 1764.04 446.683 1763.93 453.91 C 1764.18 466.139 1766.01 513.83 1763.07 522.19 C 1761.96 506.329 1762.46 490.075 1762.08 474.171 C 1760.71 429.059 1760.42 383.926 1761.18 338.803 C 1761.5 298.846 1752.14 256.502 1727.29 222.678 C 1716.59 208.115 1702.42 193.814 1688.79 181.425 C 1687.41 182.438 1688.19 182.038 1686.4 182.577 L 1684.3 179.881 C 1682.53 180.959 1682.01 186.916 1681.45 189.082 C 1680.85 191.411 1683.23 191.33 1683.92 193.569 C 1682.49 195.318 1681.46 196.241 1681.11 198.456 C 1682.61 198.815 1683.93 199.158 1685.34 199.813 C 1684.99 205.68 1680.85 211.278 1679.92 217.162 C 1679.74 218.355 1679.69 218.927 1679.11 220.038 C 1678.58 221.036 1678.6 221.485 1678.69 222.58 L 1680.47 221.763 L 1682.83 226.282 C 1684.48 226.274 1686.3 224.1 1687.54 223.07 L 1688.51 223.119 C 1689.52 225.587 1689.42 228.333 1689.27 230.932 C 1689.25 231.144 1689.21 231.349 1689.19 231.561 C 1691.57 231.308 1692.2 231.087 1694.33 231.994 C 1695.42 235.165 1700.56 247.064 1700.34 249.818 C 1700.13 252.678 1697.12 256.062 1696.71 259.191 C 1695.66 267.38 1698.27 275.642 1694.75 283.699 C 1693.2 287.23 1688.7 289.575 1687.33 293.196 C 1685.45 298.151 1688.5 304.223 1685.98 309.314 C 1684.3 312.69 1684.48 317.904 1682.66 320.724 C 1681.72 322.194 1679.14 323.387 1678.35 324.867 C 1677.58 326.305 1679.75 344.5 1679.83 347.547 C 1680.59 373.026 1679.33 398.523 1679.58 423.991 C 1679.96 441.35 1680.12 458.714 1680.08 476.075 C 1680.1 483.207 1681.13 492.209 1679.46 499.137 C 1679.34 499.634 1679.2 500.126 1679.09 500.622 C 1679.23 493.073 1678.98 485.496 1678.89 477.945 C 1678.97 477.424 1679.09 476.907 1679.13 476.383 C 1679.71 469.701 1678.82 462.278 1678.7 455.536 C 1678.43 441.738 1678.28 427.937 1678.29 414.138 C 1678.24 359.815 1688.59 307.876 1642.24 264.806 C 1624.59 248.404 1601.41 237.658 1576.68 232.787 C 1551.16 227.761 1517.18 230.245 1490.8 230.196 C 1431.74 230.098 1372.48 231.12 1313.44 230.074 C 1273.71 231.521 1233.42 230.36 1193.64 230.335 C 1142.72 230.303 1091.65 231.096 1040.75 230.074 C 1046.48 228.227 1056.28 229.249 1062.48 229.249 C 1073.11 229.256 1139.87 230.891 1145.51 228.284 C 1156.57 223.201 1154.61 189.507 1158.51 179.831 C 1160.9 173.907 1166.59 169.412 1168.99 163.577 C 1171.11 158.461 1185.67 136.249 1185.24 133.626 C 1177.98 132.286 1169.33 133.348 1161.89 133.381 C 1139.78 133.479 1113.46 135.162 1091.83 133.005 L 1090.92 132.907 C 1064.45 131.485 1031.95 134.615 1006.53 130.7 C 1021.74 129.802 1037.34 130.414 1052.58 130.423 C 1053.5 127.505 1054.3 124.204 1055.83 121.474 C 1058.98 115.762 1068.93 109.927 1069.17 103.618 C 1061.34 97.456 1011.61 105.073 997.84 101.003 C 997.318 100.848 996.813 100.676 996.3 100.505 Z" style="stroke-width: 0.846;"/>
  <path fill="rgb(112,99,196)" d="M 996.3 100.505 C 1023.01 99.712 1049.89 100.275 1076.62 100.3 L 1215.58 100.366 L 1313.47 100.349 C 1329.26 100.349 1345.75 99.45 1361.47 100.538 C 1373.37 104.026 1402.71 101.256 1416.78 101.747 C 1417.69 109.69 1422.73 124.547 1421.36 131.314 C 1404.81 132.318 1375.13 129.581 1361.19 132.204 L 1351.21 132.507 C 1362.85 136.388 1395.57 132.89 1410.28 133.651 C 1398.75 141.349 1392.53 150.804 1390.41 163.585 C 1389.84 166.993 1389.63 170.605 1388.7 173.956 C 1387.43 178.589 1384.6 182.823 1383.94 187.644 C 1383.27 192.458 1384.57 209.202 1382.14 212.071 C 1381.3 213.043 1380.67 213.934 1380.04 215.013 C 1380.61 217.309 1382.24 218.666 1383.9 220.357 C 1382.76 222.792 1380.49 222.147 1379.97 224.689 C 1382.47 226.829 1383.59 224.501 1384.76 227.704 C 1376.38 231.626 1318.24 227.214 1313.44 230.074 C 1273.71 231.521 1233.42 230.36 1193.64 230.335 C 1142.72 230.303 1091.65 231.096 1040.75 230.074 C 1046.48 228.227 1056.28 229.249 1062.48 229.249 C 1073.11 229.256 1139.87 230.891 1145.51 228.284 C 1156.57 223.201 1154.61 189.507 1158.51 179.831 C 1160.9 173.907 1166.59 169.412 1168.99 163.577 C 1171.11 158.461 1185.67 136.249 1185.24 133.626 C 1177.98 132.286 1169.33 133.348 1161.89 133.381 C 1139.78 133.479 1113.46 135.162 1091.83 133.005 L 1090.92 132.907 C 1064.45 131.485 1031.95 134.615 1006.53 130.7 C 1021.74 129.802 1037.34 130.414 1052.58 130.423 C 1053.5 127.505 1054.3 124.204 1055.83 121.474 C 1058.98 115.762 1068.93 109.927 1069.17 103.618 C 1061.34 97.456 1011.61 105.073 997.84 101.003 C 997.318 100.848 996.813 100.676 996.3 100.505 Z" style="stroke-width: 0.846;"/>
  <path fill="rgb(133,128,218)" d="M 996.3 100.505 C 1023.01 99.712 1049.89 100.275 1076.62 100.3 L 1215.58 100.366 L 1313.47 100.349 C 1329.26 100.349 1345.75 99.45 1361.47 100.538 C 1373.37 104.026 1402.71 101.256 1416.78 101.747 C 1417.69 109.69 1422.73 124.547 1421.36 131.314 C 1404.81 132.318 1375.13 129.581 1361.19 132.204 L 1351.21 132.507 C 1319.94 131.125 1288.03 133.128 1256.71 133.218 C 1201.46 133.389 1146.21 132.49 1090.92 132.907 C 1064.45 131.485 1031.95 134.615 1006.53 130.7 C 1021.74 129.802 1037.34 130.414 1052.58 130.423 C 1053.5 127.505 1054.3 124.204 1055.83 121.474 C 1058.98 115.762 1068.93 109.927 1069.17 103.618 C 1061.34 97.456 1011.61 105.073 997.84 101.003 C 997.318 100.848 996.813 100.676 996.3 100.505 Z" style="stroke-width: 0.846;"/>
  <path fill="rgb(220,34,204)" d="M 1565.02 101.33 C 1617.93 100.464 1682.58 129.017 1720.16 161.42 C 1768.45 203.114 1798.37 261.962 1799.58 322.219 C 1800.74 381.639 1799.18 441.331 1798.8 500.764 C 1793.38 489.768 1801.75 430.892 1795.55 421.695 C 1794.38 421.502 1794.15 421.434 1792.77 421.391 C 1785.53 421.167 1772.69 421.297 1767.39 426.062 C 1761.4 431.442 1764.04 446.683 1763.93 453.91 C 1757.67 353.692 1785.74 274.596 1701.2 191.035 C 1668.79 158.992 1616.86 135.334 1568.64 133.177 C 1556.58 128.339 1512.26 132.548 1495.85 131.534 C 1494.35 126.377 1501.09 109.69 1498.2 104.28 C 1497.52 103.013 1496.02 103.029 1494.66 102.638 C 1514.69 98.666 1543.03 105.277 1563.19 101.689 C 1563.8 101.583 1564.41 101.452 1565.02 101.33 Z" style="stroke-width: 0.846;"/>
  <path fill="rgb(174,103,216)" d="M 1361.47 100.538 C 1404.53 99.85 1447.68 100.447 1490.75 100.538 C 1514.14 100.578 1542.36 99.066 1565.02 101.33 C 1564.41 101.452 1563.8 101.583 1563.19 101.689 C 1543.03 105.277 1514.69 98.666 1494.66 102.638 C 1496.02 103.029 1497.52 103.013 1498.2 104.28 C 1501.09 109.69 1494.35 126.377 1495.85 131.534 C 1512.26 132.548 1556.58 128.339 1568.64 133.177 L 1361.19 132.204 C 1375.13 129.581 1404.81 132.318 1421.36 131.314 C 1422.73 124.547 1417.69 109.69 1416.78 101.747 C 1402.71 101.256 1373.37 104.026 1361.47 100.538 Z" style="stroke-width: 0.846;"/>
  <path fill="rgb(13,29,72)" d="M 1678.51 979.324 C 1678.8 976.235 1678.64 971.057 1680.6 968.671 C 1684.82 983.174 1671.98 1008.41 1663.95 1020.71 C 1646.91 1046.83 1616.44 1066.49 1583.9 1073.83 C 1577.32 1075.32 1570.59 1076.24 1563.8 1076.59 C 1540.89 1077.8 1363.72 1075.02 1359.97 1078.21 L 1359.89 1080.52 L 1360.47 1080.69 C 1360.5 1080.7 1360.51 1080.72 1360.53 1080.72 C 1362.23 1080.71 1364.55 1080.19 1366 1080.97 C 1366.91 1082.72 1367.68 1084.28 1368.2 1086.18 C 1366.41 1089.5 1364.25 1092.89 1363.12 1096.46 C 1366.24 1096.21 1368.46 1094.61 1371.29 1095.97 C 1375.05 1102.5 1373.27 1104.59 1381.23 1108.29 C 1382.5 1112.76 1379.8 1118.2 1384.72 1121.02 C 1389.73 1123.89 1398.86 1123.12 1404.31 1121.79 C 1408.12 1120.85 1410.97 1119.38 1413.93 1117.1 C 1418.23 1113.8 1424.46 1113.7 1428.76 1110.81 C 1432.46 1108.34 1433.04 1102.28 1437.31 1100.35 C 1442.29 1098.1 1450 1099.7 1456.39 1095.91 C 1464.15 1091.34 1469.71 1084.22 1477.31 1079.69 C 1477.82 1079.99 1478.3 1080.29 1478.82 1080.56 C 1486.79 1084.95 1497.83 1077.72 1506.9 1079.37 C 1509.4 1079.82 1511.93 1079.95 1514.42 1080.46 C 1515.24 1082.45 1515.28 1083.55 1514.33 1085.58 C 1512.7 1089.01 1507.38 1094.62 1507.64 1097.97 C 1510.08 1098.94 1514.07 1099.38 1516.07 1100.47 C 1520.32 1102.77 1519.35 1108.16 1524.51 1109.81 L 1525.14 1108.37 C 1526.43 1105.47 1529.73 1101.83 1530.13 1098.84 C 1530.88 1093.01 1523.64 1086.45 1529.34 1081 C 1532.27 1080.38 1535.05 1081.49 1537.52 1082.88 C 1537.84 1083.05 1538.12 1083.26 1538.44 1083.45 C 1539.04 1087.07 1538.67 1091.57 1540.04 1094.94 C 1542.6 1101.37 1550.5 1102.73 1543.73 1111.14 C 1539.92 1115.88 1533.9 1119.02 1530.25 1123.81 C 1525.49 1130.03 1524.27 1137.45 1519.02 1143.55 L 1519.44 1145.92 C 1521.65 1147.25 1522.72 1146.51 1525.24 1146.08 C 1524.78 1147.92 1524.7 1148.17 1522.92 1149.32 C 1522.28 1149.7 1521.02 1150.34 1520.33 1150.71 C 1520.22 1151.03 1520.15 1151.36 1520.03 1151.67 C 1518.78 1154.77 1516.07 1157.78 1514.07 1160.54 C 1511.32 1161.22 1508.54 1161.79 1505.8 1160.92 L 1503.97 1161.41 L 1503.94 1162.56 L 1507.53 1162.58 L 1508.27 1163.67 C 1498.93 1163.76 1488.97 1163.17 1479.74 1163.88 C 1482.68 1165.2 1486.65 1165.08 1489.89 1165.33 C 1385.28 1167.69 1280.42 1163.73 1175.78 1165.54 L 1174.04 1165.53 C 1162.8 1155.82 1152.41 1145.37 1141.29 1135.58 C 1118.99 1115.92 1096.01 1096.8 1075.17 1075.87 C 1094.16 1076.14 1113.63 1076.69 1132.61 1075.89 C 1169.28 1076.89 1206.23 1076.07 1242.93 1076.04 C 1278.41 1076.01 1314.12 1076.77 1349.58 1075.84 C 1358.42 1074.24 1368.48 1074.4 1377.54 1073.87 C 1369.77 1073.9 1361.95 1074.09 1354.19 1073.49 L 1353.04 1073.39 C 1375.16 1071.8 1398.26 1072.94 1420.46 1073.07 C 1436.64 1073.13 1454.12 1072.13 1470.13 1073.63 L 1472.2 1073.1 C 1487.29 1074.07 1502.95 1073.42 1518.08 1073.46 C 1533.56 1073.49 1549.75 1074.4 1565.12 1072.9 C 1574.5 1071.99 1583.74 1070.11 1592.64 1067.28 C 1628.13 1056.12 1653.97 1032.81 1668.71 1002.04 C 1670.91 997.431 1672.87 992.752 1674.56 987.98 C 1675.57 985.061 1675.85 981.295 1677.42 978.689 C 1677.56 978.435 1677.76 978.224 1677.91 977.995 L 1678.51 979.324 Z" style="stroke-width: 0.846;"/>
  <path fill="rgb(25,26,150)" d="M 1472.2 1073.1 C 1487.29 1074.07 1502.95 1073.42 1518.08 1073.46 C 1533.56 1073.49 1549.75 1074.4 1565.12 1072.9 C 1574.5 1071.99 1583.74 1070.11 1592.64 1067.28 C 1628.13 1056.12 1653.97 1032.81 1668.71 1002.04 C 1670.91 997.431 1672.87 992.752 1674.56 987.98 C 1675.57 985.061 1675.85 981.295 1677.42 978.689 C 1677.56 978.435 1677.76 978.224 1677.91 977.995 L 1678.51 979.324 C 1678.7 999.208 1659.89 1026.83 1644.83 1040.68 C 1618.15 1065.12 1584.55 1075.79 1547.04 1075.99 C 1526.9 1076.1 1506.44 1076.5 1486.33 1075.84 C 1440.96 1076.61 1394.93 1076.74 1349.58 1075.84 C 1358.42 1074.24 1368.48 1074.4 1377.54 1073.87 C 1369.77 1073.9 1361.95 1074.09 1354.19 1073.49 L 1353.04 1073.39 C 1375.16 1071.8 1398.26 1072.94 1420.46 1073.07 C 1436.64 1073.13 1454.12 1072.13 1470.13 1073.63 L 1472.2 1073.1 Z" style="stroke-width: 0.846;"/>
  <path fill="rgb(25,26,150)" d="M 1765.44 969.381 C 1765.91 966.995 1766.17 964.643 1766.34 962.223 C 1766.41 961.081 1766.36 959.591 1766.78 958.525 C 1770.23 949.945 1787.86 954.65 1795.44 951.485 C 1796.83 949.793 1797.13 949.378 1797.26 947.212 C 1798.01 933.477 1796.57 919.021 1796.54 905.168 C 1796.5 881.905 1797.19 858.765 1797.62 835.52 C 1797.9 819.803 1797.63 803.972 1798.57 788.28 C 1799.36 828.852 1798.5 869.506 1798.63 910.086 C 1798.75 946.298 1802.18 996.881 1793.4 1031.54 C 1790.02 1044.93 1784.43 1057.58 1778.46 1070.18 C 1767.42 1093.42 1752.92 1113.11 1733.35 1131.32 C 1686.64 1174.79 1628.36 1198.05 1560.79 1199.05 C 1480.95 1200.25 1400.89 1199.15 1321.02 1199.23 L 1250.35 1199.48 C 1237.43 1199.58 1222.91 1200.74 1210.14 1199.22 C 1198.11 1188.53 1187.06 1176.85 1175.78 1165.54 C 1280.42 1163.73 1385.28 1167.69 1489.89 1165.33 C 1577.08 1165.47 1636.52 1172.58 1704.84 1111.93 C 1738.58 1082 1758.12 1044.59 1762.24 1002.12 C 1763.71 986.905 1763.3 971.438 1763.38 956.181 C 1765.62 936.918 1761.59 916.571 1765.16 897.613 C 1766.97 921.195 1765.46 945.703 1765.44 969.381 Z" style="stroke-width: 0.846;"/>
  <path fill="rgb(115,23,165)" d="M 1763.93 453.91 C 1764.04 446.683 1761.4 431.442 1767.39 426.062 C 1772.69 421.297 1785.53 421.167 1792.77 421.391 C 1794.15 421.434 1794.38 421.502 1795.55 421.695 C 1801.75 430.892 1793.38 489.768 1798.8 500.764 C 1800.12 509.799 1799.33 519.592 1799.3 528.721 L 1799.2 579.44 L 1798.57 788.28 C 1797.63 803.972 1797.9 819.803 1797.62 835.52 C 1797.19 858.765 1796.5 881.905 1796.54 905.168 C 1796.57 919.021 1798.01 933.477 1797.26 947.212 C 1797.13 949.378 1796.83 949.793 1795.44 951.485 C 1787.86 954.65 1770.23 949.945 1766.78 958.525 C 1766.36 959.591 1766.41 961.081 1766.34 962.223 C 1766.17 964.643 1765.91 966.995 1765.44 969.381 C 1765.46 945.703 1766.97 921.195 1765.16 897.613 C 1766.16 891.085 1765.54 883.785 1765.54 877.151 C 1765.55 857.73 1764.52 838.385 1764.41 818.998 L 1763.11 614.934 L 1762.71 556.456 C 1762.62 545.209 1761.76 533.36 1763.07 522.19 C 1766.01 513.83 1764.18 466.139 1763.93 453.91 Z" style="stroke-width: 0.846;"/>
  <path fill="rgb(25,12,81)" d="M 1508.27 1163.67 C 1514.22 1163.89 1548.38 1164.84 1551.65 1163.59 C 1552.38 1163.31 1552.85 1162.65 1553.44 1162.19 C 1554.08 1159.28 1550.22 1159.78 1549.08 1156.75 C 1552.15 1148.84 1574.49 1128.04 1582.55 1123.45 C 1588.39 1120.1 1596.76 1118.19 1601.98 1114.29 C 1604.74 1112.24 1605.81 1108.26 1608.1 1105.74 C 1610.2 1103.45 1615.57 1101.93 1618.76 1101.77 C 1624.04 1101.53 1627.24 1105.25 1630.99 1107.9 C 1641.37 1115.24 1643.77 1104.17 1652.15 1103.36 C 1665.42 1102.06 1671.72 1087.61 1679.55 1079.66 C 1685.14 1073.97 1691.96 1068.32 1698.34 1063.32 C 1703.91 1058.99 1711.14 1057.13 1716.81 1052.87 L 1724.08 1047.4 C 1732.8 1047.02 1738.82 1045.29 1745.69 1040.43 L 1746.78 1039.65 L 1748.08 1040.31 C 1748.61 1042.45 1749.1 1044.58 1749.55 1046.72 C 1752.61 1043.15 1753.67 1037.33 1754.85 1032.98 C 1763.46 1001.24 1761.77 970.067 1761.95 937.8 L 1762.4 877.668 C 1764.29 882.398 1763.18 945.172 1763.38 956.181 C 1763.3 971.438 1763.71 986.905 1762.24 1002.12 C 1758.12 1044.59 1738.58 1082 1704.84 1111.93 C 1636.52 1172.58 1577.08 1165.47 1489.89 1165.33 C 1486.65 1165.08 1482.68 1165.2 1479.74 1163.88 C 1488.97 1163.17 1498.93 1163.76 1508.27 1163.67 Z" style="stroke-width: 0.846;"/>
  <path fill="rgb(25,12,81)" d="M 1565.92 1103.26 C 1566.72 1102.95 1567.99 1102.66 1568.82 1102.69 C 1572.01 1102.8 1578.19 1105.11 1580.4 1107.04 C 1580.16 1107.39 1580.08 1107.85 1579.72 1108.08 C 1576.39 1110.15 1565.57 1110.19 1557.66 1115.9 C 1555.15 1117.73 1553.73 1119.27 1553.38 1122.26 C 1552.85 1126.82 1552.7 1131.72 1551.75 1136.2 C 1551.68 1136.51 1551.6 1136.83 1551.54 1137.14 C 1551.37 1138.22 1551.34 1137.73 1551.6 1138.95 C 1551.66 1139.26 1551.75 1139.55 1551.81 1139.86 C 1550.71 1141.57 1550.32 1142.2 1548.31 1143.15 C 1546.62 1143.95 1544.49 1144.25 1542.67 1143.61 C 1541.58 1143.24 1541.83 1143.17 1541.21 1142.12 L 1542.65 1141.12 C 1545.78 1132.52 1548.28 1128.97 1545.44 1119.94 C 1544.57 1117.13 1544.3 1114.99 1546.1 1112.35 C 1550.07 1106.59 1559.13 1104.65 1565.92 1103.26 Z" style="stroke-width: 0.846;"/>
  <path fill="rgb(52,151,202)" d="M 817.538 1167.45 C 801.505 1161.36 781.364 1143.92 769.158 1132.6 C 736.631 1102 714.461 1063.74 705.217 1022.27 C 697.779 988.327 700.492 952.213 700.526 917.787 L 700.38 787.672 L 700.397 486.089 C 700.38 427.517 699.388 368.768 700.603 310.213 C 701.733 256.045 726.787 200.483 770.75 162.768 C 842.43 101.264 902.682 98.903 996.3 100.505 C 996.813 100.676 997.318 100.848 997.84 101.003 C 1011.61 105.073 1061.34 97.456 1069.17 103.618 C 1068.93 109.927 1058.98 115.762 1055.83 121.474 C 1054.3 124.204 1053.5 127.505 1052.58 130.423 C 1037.34 130.414 1021.74 129.802 1006.53 130.7 C 1031.95 134.615 1064.45 131.485 1090.92 132.907 L 1091.83 133.005 C 1113.46 135.162 1139.78 133.479 1161.89 133.381 C 1169.33 133.348 1177.98 132.286 1185.24 133.626 C 1185.67 136.249 1171.11 158.461 1168.99 163.577 C 1166.59 169.412 1160.9 173.907 1158.51 179.831 C 1154.61 189.507 1156.57 223.201 1145.51 228.284 C 1139.87 230.891 1073.11 229.256 1062.48 229.249 C 1056.28 229.249 1046.48 228.227 1040.75 230.074 C 1020.81 230.286 1000.88 230.327 980.944 230.196 C 967.376 230.18 953.509 229.657 940.028 231.161 C 910.129 234.495 880.298 249.883 859.601 269.21 C 841.933 285.987 829.864 306.887 824.771 329.517 C 821.167 346.151 822.322 364.03 822.297 380.916 L 822.228 448.666 L 822.135 676.697 L 822.186 751.6 C 822.195 764.846 822.794 778.36 821.981 791.582 C 822.263 828.613 822.314 865.646 822.143 902.687 C 822.118 928.288 819.242 956.884 826.029 981.845 C 831.798 1003.5 844.227 1023.23 861.911 1038.83 C 883.782 1057.95 915.025 1070.36 945.326 1072.92 C 961.462 1074.3 978.256 1073.48 994.477 1073.44 C 1015.05 1073.38 1035.67 1073.68 1056.23 1073.43 C 1057.29 1073.42 1058.34 1073.36 1059.4 1073.31 L 1068.61 1073.37 C 1071.05 1074.04 1073.15 1074.41 1075.17 1075.87 C 1096.01 1096.8 1118.99 1115.92 1141.29 1135.58 C 1152.41 1145.37 1162.8 1155.82 1174.04 1165.53 L 1175.78 1165.54 C 1187.06 1176.85 1198.11 1188.53 1210.14 1199.22 L 1016.68 1198.91 C 977.212 1198.84 936.03 1201.08 897.015 1195.09 C 870.411 1191.01 839.956 1181.29 817.538 1167.45 Z" style="stroke-width: 0.846;"/>
  <path fill="rgb(46,202,234)" d="M 817.538 1167.45 C 801.505 1161.36 781.364 1143.92 769.158 1132.6 C 736.631 1102 714.461 1063.74 705.217 1022.27 C 697.779 988.327 700.492 952.213 700.526 917.787 L 700.38 787.672 L 700.397 486.089 C 700.38 427.517 699.388 368.768 700.603 310.213 C 701.733 256.045 726.787 200.483 770.75 162.768 C 842.43 101.264 902.682 98.903 996.3 100.505 C 996.813 100.676 997.318 100.848 997.84 101.003 C 1011.61 105.073 1061.34 97.456 1069.17 103.618 C 1068.93 109.927 1058.98 115.762 1055.83 121.474 C 1054.3 124.204 1053.5 127.505 1052.58 130.423 C 1037.34 130.414 1021.74 129.802 1006.53 130.7 C 991.618 129.646 976.287 130.381 961.333 130.872 C 906.517 132.646 851.503 140.646 808.216 173.776 C 769.535 203.376 742.212 247.309 738.626 293.179 C 737.863 302.989 738.42 312.763 738.283 322.57 C 738.086 336.461 737.505 350.37 737.196 364.263 C 736.203 430.991 735.964 497.727 736.468 564.458 L 736.554 797.362 C 736.58 830.321 735.322 863.471 736.255 896.406 C 735.201 913.091 735.972 930.111 736.023 946.84 C 736.066 963.712 735.39 980.889 737.368 997.677 C 741.895 1035.96 761.292 1073.43 789.659 1102.08 C 800.299 1112.84 812.668 1122.26 825.644 1130.66 C 831.114 1134.2 837.191 1137.29 842.396 1141.11 C 842.789 1141.48 843.183 1141.88 843.594 1142.25 C 853.78 1151.35 881.025 1158.16 894.576 1161.19 C 900.644 1162.53 907.056 1163.25 913.022 1164.89 C 915.162 1165.49 917.353 1165.71 918.132 1167.65 C 915.453 1171.3 909.863 1180.84 905.789 1182.23 L 904.813 1179.86 C 899.695 1180.98 893.856 1186.36 889.149 1188.82 C 887.805 1189.52 887.103 1190 886.128 1191.08 C 869.427 1189.09 852.736 1182.11 837.705 1175.51 C 831.139 1172.61 824.608 1169.23 817.538 1167.45 Z" style="stroke-width: 0.846;"/>
  <path fill="url(#Gradient5)" d="M 736.255 896.406 C 738.566 898.278 737.813 982.226 738.275 991.483 C 738.566 997.423 739.585 1003.27 740.817 1009.1 C 747.109 1039.15 761.772 1069.68 783.402 1093.38 C 810.904 1123.85 847.994 1146.17 889.842 1157.43 C 898.017 1159.58 906.55 1161.78 915.025 1162.53 L 915.787 1160.07 C 917.499 1159.01 919.15 1157.98 920.589 1156.63 C 934.601 1143.57 954.853 1136.08 971.537 1126.3 C 986.696 1117.42 999.732 1107.74 1013.65 1097.41 C 1020.75 1092.12 1028.43 1088.01 1033.53 1080.96 L 1034.24 1079.96 C 1040.54 1077.06 1047.46 1077.22 1054.37 1077.17 L 988.836 1077.2 C 970.869 1077.19 952.885 1077.68 935.055 1075.18 C 896.93 1069.82 868.528 1052.89 846.187 1025.2 C 835.188 1011.58 827.459 996.602 823.821 980.085 C 819.841 962.028 821.09 943.423 821.124 925.101 L 821.227 853.691 L 821.047 813.973 C 821.039 807.412 820.328 799.653 821.621 793.215 C 821.741 792.665 821.869 792.123 821.981 791.582 C 822.263 828.613 822.314 865.646 822.143 902.687 C 822.118 928.288 819.242 956.884 826.029 981.845 C 831.798 1003.5 844.227 1023.23 861.911 1038.83 C 883.782 1057.95 915.025 1070.36 945.326 1072.92 C 961.462 1074.3 978.256 1073.48 994.477 1073.44 C 1015.05 1073.38 1035.67 1073.68 1056.23 1073.43 C 1057.29 1073.42 1058.34 1073.36 1059.4 1073.31 L 1068.61 1073.37 C 1071.05 1074.04 1073.15 1074.41 1075.17 1075.87 C 1096.01 1096.8 1118.99 1115.92 1141.29 1135.58 C 1152.41 1145.37 1162.8 1155.82 1174.04 1165.53 L 1175.78 1165.54 C 1187.06 1176.85 1198.11 1188.53 1210.14 1199.22 L 1016.68 1198.91 C 977.212 1198.84 936.03 1201.08 897.015 1195.09 C 870.411 1191.01 839.956 1181.29 817.538 1167.45 C 824.608 1169.23 831.139 1172.61 837.705 1175.51 C 852.736 1182.11 869.427 1189.09 886.128 1191.08 C 887.103 1190 887.805 1189.52 889.149 1188.82 C 893.856 1186.36 899.695 1180.98 904.813 1179.86 L 905.789 1182.23 C 909.863 1180.84 915.453 1171.3 918.132 1167.65 C 917.353 1165.71 915.162 1165.49 913.022 1164.89 C 907.056 1163.25 900.644 1162.53 894.576 1161.19 C 881.025 1158.16 853.78 1151.35 843.594 1142.25 C 843.183 1141.88 842.789 1141.48 842.396 1141.11 C 837.191 1137.29 831.114 1134.2 825.644 1130.66 C 812.668 1122.26 800.299 1112.84 789.659 1102.08 C 761.292 1073.43 741.895 1035.96 737.368 997.677 C 735.39 980.889 736.066 963.712 736.023 946.84 C 735.972 930.111 735.201 913.091 736.255 896.406 Z" style="stroke-width: 0.846;"/>
  <path fill="rgb(46,103,222)" d="M 842.396 1141.11 C 842.635 1141.18 842.875 1141.27 843.114 1141.35 C 849.261 1143.53 854.987 1146.64 861.038 1149.06 C 875.821 1155.02 891.306 1159.49 907.184 1162.38 C 939.104 1168.05 976.895 1165.58 1009.76 1165.57 L 1174.04 1165.53 L 1175.78 1165.54 C 1187.06 1176.85 1198.11 1188.53 1210.14 1199.22 L 1016.68 1198.91 C 977.212 1198.84 936.03 1201.08 897.015 1195.09 C 870.411 1191.01 839.956 1181.29 817.538 1167.45 C 824.608 1169.23 831.139 1172.61 837.705 1175.51 C 852.736 1182.11 869.427 1189.09 886.128 1191.08 C 887.103 1190 887.805 1189.52 889.149 1188.82 C 893.856 1186.36 899.695 1180.98 904.813 1179.86 L 905.789 1182.23 C 909.863 1180.84 915.453 1171.3 918.132 1167.65 C 917.353 1165.71 915.162 1165.49 913.022 1164.89 C 907.056 1163.25 900.644 1162.53 894.576 1161.19 C 881.025 1158.16 853.78 1151.35 843.594 1142.25 C 843.183 1141.88 842.789 1141.48 842.396 1141.11 Z" style="stroke-width: 0.846;"/>
  <path fill="rgb(174,103,216)" d="M 947.903 331.118 C 958.072 340.771 1039.6 371.111 1059.73 381.75 L 1059.36 448.056 C 1059.27 459.289 1058.55 470.848 1059.16 482.05 C 1058.93 497.09 1059.16 512.219 1058.44 527.242 C 1058.32 537.121 1055.61 563.12 1059.62 570.883 C 1061.04 571.869 1062.33 572.499 1063.98 573.142 C 1068.86 575.203 1073.94 577.722 1079.03 579.254 L 1180.15 622.162 C 1198.6 629.901 1217.3 638.728 1236.47 644.853 C 1236.99 670.728 1238.31 697.405 1237 723.23 C 1226.56 724.355 1175.65 700.132 1164.17 695.074 C 1162.31 696.15 1161.64 696.24 1161.11 698.293 C 1158.96 706.815 1161.06 717.129 1160.29 725.981 C 1160.54 739.423 1162.7 766.562 1160.47 778.566 C 1160.65 787.524 1161.78 797.55 1160.43 806.41 L 1160.54 904.626 C 1160.53 918.138 1162.14 936.158 1160.27 949.209 C 1160.08 950.605 1159.75 951.384 1158.57 952.34 C 1157.48 953.22 1156.11 953.922 1154.88 954.608 C 1124.45 939.411 1091.7 927.112 1060.61 912.886 C 1048.18 917.991 1036.52 925.354 1024.58 931.386 C 999.629 943.848 974.472 955.978 949.119 967.757 C 946.542 961.284 948.271 911.572 948.262 901.949 C 948.229 858.076 947.124 813.965 948.442 770.116 C 948.905 746.575 948.262 722.926 948.194 699.377 L 948.306 579.628 C 948.339 556.015 946.79 531.695 948.408 508.157 C 947.492 467.588 948.194 426.883 948.246 386.306 C 948.271 368.056 949.281 349.315 947.903 331.118 Z" style="stroke-width: 0.846;"/>
  <path fill="url(#Gradient4)" d="M 1060.99 739.587 C 1073.32 744.883 1086.36 753.251 1096.62 761.298 C 1113.83 774.822 1125.32 790.374 1147 798.971 C 1151.15 800.621 1154.76 802.24 1159.39 802.272 C 1159.5 804.12 1159.25 804.85 1160.43 806.41 L 1160.54 904.626 C 1160.53 918.138 1162.14 936.158 1160.27 949.209 C 1160.08 950.605 1159.75 951.384 1158.57 952.34 C 1157.48 953.22 1156.11 953.922 1154.88 954.608 C 1124.45 939.411 1091.7 927.112 1060.61 912.886 L 1059.73 911.146 C 1059.29 857.461 1061.49 803.462 1059.41 749.835 C 1059.97 746.435 1060.66 743.011 1060.99 739.587 Z" style="stroke-width: 0.846;"/>
  <path fill="rgb(46,103,222)" d="M 948.442 770.116 C 948.519 770.355 948.605 770.593 948.674 770.831 C 952.927 785.455 945.498 824.911 951.053 834.756 C 956.634 835.026 960.879 831.989 966.11 830.797 C 971.562 829.566 982.819 831.053 988.493 831.848 C 1003.53 833.968 1028.56 846.876 1041.77 846.686 C 1046.09 846.63 1051.9 839.493 1056.51 838.607 C 1057.63 840.208 1057.72 841.193 1057.8 843.057 C 1058.73 835.059 1058.08 826.709 1058.04 818.661 L 1058.08 772.621 L 1058.55 772.596 C 1058.85 789.889 1057.25 905.43 1059.73 911.146 L 1060.61 912.886 C 1048.18 917.991 1036.52 925.354 1024.58 931.386 C 999.629 943.848 974.472 955.978 949.119 967.757 C 946.542 961.284 948.271 911.572 948.262 901.949 C 948.229 858.076 947.124 813.965 948.442 770.116 Z" style="stroke-width: 0.846;"/>
  <path fill="rgb(39,58,135)" d="M 1059.16 671.549 C 1058.9 664.281 1058.89 657.014 1059.12 649.748 L 1060.04 649.55 C 1060.4 654.157 1063.59 656.489 1066.81 659.962 C 1071.53 660.685 1076.07 660.037 1080.38 658.279 C 1094.16 663.23 1107.48 670.005 1120.89 675.801 C 1134.89 681.854 1151.15 687.56 1164.17 695.074 C 1162.31 696.15 1161.64 696.24 1161.11 698.293 C 1158.96 706.815 1161.06 717.129 1160.29 725.981 C 1160.54 739.423 1162.7 766.562 1160.47 778.566 C 1160.65 787.524 1161.78 797.55 1160.43 806.41 C 1159.25 804.85 1159.5 804.12 1159.39 802.272 C 1154.76 802.24 1151.15 800.621 1147 798.971 C 1125.32 790.374 1113.83 774.822 1096.62 761.298 C 1086.36 753.251 1073.32 744.883 1060.99 739.587 C 1060.66 743.011 1059.97 746.435 1059.41 749.835 C 1057.53 724.076 1058.57 697.365 1059.16 671.549 Z" style="stroke-width: 0.846;"/>
  <path fill="rgb(25,12,81)" d="M 1080.38 658.279 C 1094.16 663.23 1107.48 670.005 1120.89 675.801 C 1134.89 681.854 1151.15 687.56 1164.17 695.074 C 1162.31 696.15 1161.64 696.24 1161.11 698.293 C 1158.96 706.815 1161.06 717.129 1160.29 725.981 C 1126 707.251 1094.38 686.28 1066.81 659.962 C 1071.53 660.685 1076.07 660.037 1080.38 658.279 Z" style="stroke-width: 0.846;"/>
  <path fill="rgb(115,23,165)" d="M 1059.16 671.549 C 1059.62 679.793 1059.3 688.045 1059.77 696.281 C 1060.22 704.197 1061.41 712.006 1061.25 719.954 C 1071.46 724.068 1094.21 741.13 1102.83 748.48 L 1103.62 747.692 C 1101.87 736.246 1063.85 721.539 1066.61 710.979 C 1072.03 712.86 1071.84 718.238 1075.74 721.588 C 1081.35 726.4 1089 729.841 1095.15 734.176 C 1105.27 741.328 1115.73 752.914 1123.05 762.464 C 1127.54 768.294 1132.19 765.921 1134.69 774.411 C 1137.06 775.536 1139.42 775.511 1142.01 775.659 L 1144.3 777.368 C 1143.44 778.287 1142.67 778.804 1141.6 779.502 L 1139.25 777.326 L 1138.63 778.37 L 1139.1 777.334 C 1139.28 779.987 1140.33 780.989 1142.72 782.664 C 1144.08 783.616 1145.85 784.216 1147.37 784.88 C 1150.31 786.161 1153.78 788.379 1157.07 788.28 C 1159.65 785.874 1159.65 783.912 1159.99 780.717 C 1160.11 779.519 1160.05 779.971 1160.47 778.566 C 1160.65 787.524 1161.78 797.55 1160.43 806.41 C 1159.25 804.85 1159.5 804.12 1159.39 802.272 C 1154.76 802.24 1151.15 800.621 1147 798.971 C 1125.32 790.374 1113.83 774.822 1096.62 761.298 C 1086.36 753.251 1073.32 744.883 1060.99 739.587 C 1060.66 743.011 1059.97 746.435 1059.41 749.835 C 1057.53 724.076 1058.57 697.365 1059.16 671.549 Z" style="stroke-width: 0.846;"/>
  <path fill="rgb(229,143,231)" d="M 947.903 331.118 C 958.072 340.771 1039.6 371.111 1059.73 381.75 L 1059.36 448.056 C 1059.27 459.289 1058.55 470.848 1059.16 482.05 C 1058.93 497.09 1059.16 512.219 1058.44 527.242 C 1058.22 518.539 1057.15 509.857 1056.97 501.163 C 1056.8 492.447 1057.97 483.719 1058 474.988 L 1058.05 383.173 C 1047.91 377.114 1035.55 372.671 1024.57 367.843 L 957.096 338.523 C 955.042 349.073 958.919 355.705 958.269 365.231 C 957.601 375.073 950.026 383.256 949.401 393.651 C 947.766 420.716 949.247 448.487 949.307 475.621 C 949.333 485.837 950.831 498.257 948.408 508.157 C 947.492 467.588 948.194 426.883 948.246 386.306 C 948.271 368.056 949.281 349.315 947.903 331.118 Z" style="stroke-width: 0.846;"/>
  <path fill="rgb(13,29,72)" d="M 1060.04 649.55 C 1066.88 652.351 1073.67 655.258 1080.38 658.279 C 1076.07 660.037 1071.53 660.685 1066.81 659.962 C 1063.59 656.489 1060.4 654.157 1060.04 649.55 Z" style="stroke-width: 0.846;"/>
  <path fill="url(#Gradient3)" d="M 1040.75 230.074 C 1091.65 231.096 1142.72 230.303 1193.64 230.335 C 1233.42 230.36 1273.71 231.521 1313.44 230.074 C 1372.48 231.12 1431.74 230.098 1490.8 230.196 C 1517.18 230.245 1551.16 227.761 1576.68 232.787 C 1601.41 237.658 1624.59 248.404 1642.24 264.806 C 1688.59 307.876 1678.24 359.815 1678.29 414.138 C 1678.28 427.937 1678.43 441.738 1678.7 455.536 C 1678.82 462.278 1679.71 469.701 1679.13 476.383 C 1679.09 476.907 1678.97 477.424 1678.89 477.945 C 1677.4 476.051 1677.87 473.271 1677.77 470.961 C 1674.59 468.752 1671.72 466.492 1668.91 463.907 C 1669.46 462.779 1669.51 462.076 1669.51 460.864 C 1669.59 442.263 1668.92 423.601 1668.94 404.977 C 1668.99 370.462 1674.09 332.263 1644.83 305.335 C 1632.06 293.607 1614.35 282.678 1596.48 278.584 C 1576.75 274.057 1554.35 276.876 1534.08 276.933 C 1486.66 277.088 1439.19 278.077 1391.77 277.84 C 1381.94 275.592 1331.22 276.99 1317.25 276.973 C 1243.05 276.671 1168.85 276.835 1094.65 277.489 L 1023.02 277.562 C 1009.01 277.571 994.579 277.006 980.644 278.306 C 962.309 280.014 946.062 284.517 930.159 292.983 C 905.104 306.062 886.931 327.621 879.742 352.83 C 874.555 371.136 875.941 391.14 876.027 409.894 C 876.052 429.222 876.223 448.547 876.531 467.873 L 876.574 605.896 L 876.437 873.3 L 876.481 950.749 C 876.454 967.004 875.83 983.512 877.165 999.724 C 878.021 1010.23 882.096 1020.15 888.181 1029.11 C 900.696 1047.54 920.718 1057.1 943.631 1061.9 C 970.843 1067.59 998.302 1065.05 1025.87 1064.93 C 1037.08 1064.87 1048.25 1065.83 1059.45 1065.7 C 1052.72 1059.44 1032.98 1043.64 1029.45 1038.02 L 1029.49 1037.06 C 1038.48 1041.95 1055.55 1059.55 1062.49 1067.65 L 1061.87 1067.32 C 1063.32 1068.87 1064.73 1070.24 1065.78 1072.05 C 1063.96 1073.4 1065.03 1073.11 1063.09 1072.99 C 1061.66 1072.91 1060.75 1073.01 1059.4 1073.31 C 1058.34 1073.36 1057.29 1073.42 1056.23 1073.43 C 1035.67 1073.68 1015.05 1073.38 994.477 1073.44 C 978.256 1073.48 961.462 1074.3 945.326 1072.92 C 915.025 1070.36 883.782 1057.95 861.911 1038.83 C 844.227 1023.23 831.798 1003.5 826.029 981.845 C 819.242 956.884 822.118 928.288 822.143 902.687 C 822.314 865.646 822.263 828.613 821.981 791.582 C 822.794 778.36 822.195 764.846 822.186 751.6 L 822.135 676.697 L 822.228 448.666 L 822.297 380.916 C 822.322 364.03 821.167 346.151 824.771 329.517 C 829.864 306.887 841.933 285.987 859.601 269.21 C 880.298 249.883 910.129 234.495 940.028 231.161 C 953.509 229.657 967.376 230.18 980.944 230.196 C 1000.88 230.327 1020.81 230.286 1040.75 230.074 Z" style="stroke-width: 0.846;"/>
  <path fill="url(#Gradient2)" d="M 1235.4 512.962 L 1309.93 545.115 C 1325.06 553.294 1342.57 559.952 1358.91 566.008 C 1367.18 569.074 1378.48 571.834 1385.71 576.329 C 1354.08 591.442 1322.22 606.155 1290.13 620.467 C 1272.6 628.989 1253.55 635.796 1236.47 644.853 C 1217.3 638.728 1198.6 629.901 1180.15 622.162 L 1079.03 579.254 C 1073.94 577.722 1068.86 575.203 1063.98 573.142 C 1066.67 571.348 1069.96 570.061 1072.91 568.669 C 1102.63 563.03 1131.95 551.627 1160.48 542.244 C 1185.74 533.368 1210.89 523.371 1235.4 512.962 Z" style="stroke-width: 0.846;"/>
  <path fill="rgb(232,75,101)" d="M 1160.67 331.265 C 1158.06 359.404 1159.91 389.379 1159.9 417.694 C 1159.89 427.104 1161.03 437.976 1159.58 447.222 C 1160.5 474.696 1159.54 502.237 1160 529.725 L 1160.48 542.244 C 1131.95 551.627 1102.63 563.03 1072.91 568.669 C 1069.96 570.061 1066.67 571.348 1063.98 573.142 C 1062.33 572.499 1061.04 571.869 1059.62 570.883 C 1055.61 563.12 1058.32 537.121 1058.44 527.242 C 1059.16 512.219 1058.93 497.09 1059.16 482.05 C 1058.55 470.848 1059.27 459.289 1059.36 448.056 L 1059.73 381.75 C 1081.88 370.22 1105.13 360.054 1127.83 349.44 C 1137.23 345.042 1148.07 340.895 1156.68 335.372 C 1158.52 334.189 1159.55 333.007 1160.67 331.265 Z" style="stroke-width: 0.846;"/>
  <path fill="url(#Gradient1)" d="M 1059.16 482.05 C 1061.88 485.265 1061.41 488.692 1061.55 492.556 L 1062.5 492.903 C 1074.14 491.07 1085.09 486.07 1095.87 481.903 C 1108.02 477.2 1146.71 461.666 1157.96 465.681 C 1160.63 461.223 1156.85 453.512 1158.97 448.485 C 1159.15 448.056 1159.39 447.643 1159.58 447.222 C 1160.5 474.696 1159.54 502.237 1160 529.725 L 1160.48 542.244 C 1131.95 551.627 1102.63 563.03 1072.91 568.669 C 1069.96 570.061 1066.67 571.348 1063.98 573.142 C 1062.33 572.499 1061.04 571.869 1059.62 570.883 C 1055.61 563.12 1058.32 537.121 1058.44 527.242 C 1059.16 512.219 1058.93 497.09 1059.16 482.05 Z" style="stroke-width: 0.846;"/>
  <path fill="rgb(232,75,101)" d="M 1072.91 568.669 L 1072.51 568.299 C 1080.04 563.05 1091.29 559.504 1099.91 555.825 C 1119.98 547.272 1140.37 539.069 1160 529.725 L 1160.48 542.244 C 1131.95 551.627 1102.63 563.03 1072.91 568.669 Z" style="stroke-width: 0.846;"/>
  <path fill="rgb(13,29,72)" d="M 1160.67 331.265 C 1172.09 343.646 1186.73 353.765 1199.48 365.039 C 1218.95 382.221 1237.66 400.068 1257.09 417.24 C 1274.68 432.786 1293.21 447.701 1309.77 464.162 C 1309.82 468.313 1309.6 472.641 1310.32 476.743 C 1310.51 492.774 1311.57 509.331 1310.26 525.309 C 1309.76 531.939 1309.78 538.475 1309.93 545.115 L 1235.4 512.962 C 1210.89 523.371 1185.74 533.368 1160.48 542.244 L 1160 529.725 C 1159.54 502.237 1160.5 474.696 1159.58 447.222 C 1161.03 437.976 1159.89 427.104 1159.9 417.694 C 1159.91 389.379 1158.06 359.404 1160.67 331.265 Z" style="stroke-width: 0.846;"/>
  <path fill="rgb(174,103,216)" d="M 1309.9 332.132 C 1321.12 343.863 1368.1 362.824 1385.49 370.794 C 1392.26 373.895 1400.4 376.937 1406.29 381.171 C 1403.6 395.005 1405.66 413.582 1405.64 427.956 L 1405.47 520.815 C 1405.46 536.526 1406.48 552.776 1405.33 568.423 C 1398.85 571.11 1392.38 574.089 1385.71 576.329 C 1378.48 571.834 1367.18 569.074 1358.91 566.008 C 1342.57 559.952 1325.06 553.294 1309.93 545.115 C 1309.78 538.475 1309.76 531.939 1310.26 525.309 C 1311.57 509.331 1310.51 492.774 1310.32 476.743 C 1311.83 451.555 1310.26 425.636 1310.24 400.347 C 1310.22 377.959 1311.99 354.372 1309.9 332.132 Z" style="stroke-width: 0.846;"/>
  <path fill="rgb(232,75,101)" d="M 1310.26 525.309 C 1336.67 541.863 1375.45 557.627 1405.33 568.423 C 1398.85 571.11 1392.38 574.089 1385.71 576.329 C 1378.48 571.834 1367.18 569.074 1358.91 566.008 C 1342.57 559.952 1325.06 553.294 1309.93 545.115 C 1309.78 538.475 1309.76 531.939 1310.26 525.309 Z" style="stroke-width: 0.846;"/>
  <path fill="rgb(249,201,181)" d="M 947.903 331.118 C 949.05 330.44 949.88 330.13 951.259 330.064 C 963.712 329.509 976.424 329.909 988.904 329.9 L 1067.26 330.048 L 1124.9 329.851 C 1136.2 329.811 1147.76 329.328 1159.01 330.097 L 1160.67 331.265 C 1159.55 333.007 1158.52 334.189 1156.68 335.372 C 1148.07 340.895 1137.23 345.042 1127.83 349.44 C 1105.13 360.054 1081.88 370.22 1059.73 381.75 C 1039.6 371.111 958.072 340.771 947.903 331.118 Z" style="stroke-width: 0.846;"/>
  <path fill="rgb(249,201,181)" d="M 1422.79 330.309 C 1443.36 329.614 1464.07 330.048 1484.64 330.064 C 1495.44 330.081 1508.25 328.912 1518.8 330.751 C 1502.88 338.707 1486.23 345.591 1469.87 352.772 C 1460.47 356.894 1450.74 361.97 1440.96 365.226 C 1429.18 370.221 1417.76 375.582 1406.29 381.171 C 1400.4 376.937 1392.26 373.895 1385.49 370.794 C 1368.1 362.824 1321.12 343.863 1309.9 332.132 C 1310.16 331.87 1310.4 331.584 1310.68 331.356 C 1313.35 329.247 1377.2 330.121 1385.71 330.072 C 1397.78 330.081 1410.83 329.206 1422.79 330.309 Z" style="stroke-width: 0.846;"/>
  <path fill="rgb(252,151,162)" d="M 1422.79 330.309 C 1443.36 329.614 1464.07 330.048 1484.64 330.064 C 1495.44 330.081 1508.25 328.912 1518.8 330.751 C 1502.88 338.707 1486.23 345.591 1469.87 352.772 C 1460.47 356.894 1450.74 361.97 1440.96 365.226 C 1448.9 355.992 1465.1 356.2 1474.07 348.852 C 1475.88 347.359 1476.91 345.804 1476.83 343.505 C 1476.66 338.812 1470.99 334.11 1467.36 331.135 C 1455.65 331.461 1433.73 333.025 1422.79 330.309 Z" style="stroke-width: 0.846;"/>
  <path fill="rgb(75,11,118)" d="M 1391.77 277.84 C 1439.19 278.077 1486.66 277.088 1534.08 276.933 C 1554.35 276.876 1576.75 274.057 1596.48 278.584 C 1614.35 282.678 1632.06 293.607 1644.83 305.335 C 1674.09 332.263 1668.99 370.462 1668.94 404.977 C 1668.92 423.601 1669.59 442.263 1669.51 460.864 C 1669.51 462.076 1669.46 462.779 1668.91 463.907 C 1654.45 452.588 1641.02 439.68 1627.35 427.517 C 1592.29 396.279 1558.08 364.061 1521.9 333.85 L 1518.8 330.751 C 1508.25 328.912 1495.44 330.081 1484.64 330.064 C 1464.07 330.048 1443.36 329.614 1422.79 330.309 C 1410.83 329.206 1397.78 330.081 1385.71 330.072 C 1393.25 325.839 1497.26 330.751 1518.43 328.128 C 1540.87 349.658 1565.4 369.466 1588.51 390.443 L 1628.63 426.863 C 1635.64 433.178 1642.74 440.678 1650.7 445.956 L 1653.07 443.949 C 1655.9 445.715 1658.8 447.252 1661.81 448.772 C 1663.86 448.235 1664.87 447.721 1666 446.011 C 1667.56 443.695 1667.94 440.482 1668.16 437.849 C 1668.78 429.737 1667.92 421.159 1667.95 412.988 C 1668 401.152 1669.9 375.118 1667.53 364.796 C 1667.54 366.66 1667.54 368.525 1667.52 370.389 C 1667.52 372.055 1667.76 373.916 1666.95 375.467 C 1666.19 376.95 1666.05 377.128 1664.28 377.6 C 1658.37 367.322 1665.42 361.846 1666.97 353.599 C 1668.94 343.245 1659.43 325.267 1653.17 316.768 C 1647.04 308.44 1638.61 301.281 1629.8 295.242 C 1606.71 279.393 1589.96 277.717 1561.83 277.759 L 1525.46 277.759 C 1498.94 277.75 1472.26 277.219 1445.78 278.257 C 1434.01 278.722 1403.81 280.39 1393.33 278.192 C 1392.81 278.085 1392.3 277.954 1391.77 277.84 Z" style="stroke-width: 0.846;"/>
</svg>